<svg width="20" height="20" viewBox="0 0 20 20" fill="none" xmlns="http://www.w3.org/2000/svg">
<path d="M9.42784 12.916C9.5715 12.4714 9.77109 12.052 10.0183 11.666H4.37699C3.34197 11.666 2.50293 12.5051 2.50293 13.5401V14.0215C2.50293 14.7654 2.76835 15.485 3.2515 16.0507C4.55675 17.5793 6.54509 18.3337 9.16667 18.3337C9.66659 18.3337 10.1435 18.3062 10.5971 18.2512C10.2713 17.8972 9.99184 17.4997 9.76875 17.0684C9.57325 17.0786 9.37259 17.0837 9.16667 17.0837C6.88472 17.0837 5.24649 16.4622 4.20206 15.2391C3.91219 14.8996 3.75293 14.4678 3.75293 14.0215V13.5401C3.75293 13.1954 4.03233 12.916 4.37699 12.916H9.42784ZM9.16667 1.66992C11.4678 1.66992 13.3333 3.5354 13.3333 5.83659C13.3333 8.13777 11.4678 10.0032 9.16667 10.0032C6.86545 10.0032 4.99997 8.13777 4.99997 5.83659C4.99997 3.5354 6.86545 1.66992 9.16667 1.66992ZM9.16667 2.91992C7.55581 2.91992 6.24997 4.22576 6.24997 5.83659C6.24997 7.44741 7.55581 8.75325 9.16667 8.75325C10.7775 8.75325 12.0833 7.44741 12.0833 5.83659C12.0833 4.22576 10.7775 2.91992 9.16667 2.91992ZM19.1663 14.5833C19.1663 17.1147 17.1143 19.1667 14.583 19.1667C12.0517 19.1667 9.99967 17.1147 9.99967 14.5833C9.99967 12.052 12.0517 10 14.583 10C17.1143 10 19.1663 12.052 19.1663 14.5833ZM11.6663 14.5833C11.6663 14.8134 11.8529 15 12.083 15H17.083C17.3131 15 17.4997 14.8134 17.4997 14.5833C17.4997 14.3532 17.3131 14.1667 17.083 14.1667H12.083C11.8529 14.1667 11.6663 14.3532 11.6663 14.5833Z" fill="#212121"/>
</svg>
