<svg width="24" height="24" viewBox="0 0 24 24" fill="none" xmlns="http://www.w3.org/2000/svg">
<path d="M15.7261 3.44336C15.3775 3.09478 14.8022 3.09478 14.4536 3.44336L7.93408 9.96387C7.39636 10.5016 7.09046 11.2291 7.09033 11.999C7.09033 12.7674 7.386 13.4951 7.93506 14.0342L7.93408 14.0352L14.4536 20.5557L14.4575 20.5596C14.6322 20.7225 14.8584 20.8193 15.0903 20.8193C15.3178 20.8192 15.5466 20.7352 15.7261 20.5557C16.0746 20.2071 16.0747 19.6318 15.7261 19.2832L9.20557 12.7637C8.78426 12.3423 8.78427 11.6568 9.20557 11.2354L15.7261 4.71582C16.0747 4.36724 16.0747 3.79194 15.7261 3.44336Z" fill="#1B2436" stroke="#1B2436" stroke-width="0.3"/>
</svg>
