<svg width="23" height="23" viewBox="0 0 23 23" fill="none" xmlns="http://www.w3.org/2000/svg">
<path d="M7.71058 12.4937L12.0686 16.8517C12.2464 17.0295 12.3318 17.2371 12.3247 17.4742C12.3176 17.7114 12.2248 17.9189 12.0463 18.0968C11.8685 18.2599 11.6609 18.3452 11.4238 18.3529C11.1866 18.3607 10.9791 18.2753 10.8012 18.0968L4.93125 12.2269C4.84231 12.1379 4.77916 12.0416 4.74181 11.9378C4.70445 11.834 4.68637 11.7229 4.68755 11.6043C4.68874 11.4857 4.70742 11.3745 4.74359 11.2708C4.77975 11.167 4.8426 11.0707 4.93214 10.9817L10.8021 5.11177C10.9651 4.94871 11.1691 4.86719 11.414 4.86719C11.6589 4.86719 11.8699 4.94871 12.0472 5.11177C12.2251 5.28965 12.314 5.50102 12.314 5.7459C12.314 5.99078 12.2251 6.20186 12.0472 6.37914L7.71058 10.7149H17.6495C17.9015 10.7149 18.1128 10.8003 18.2836 10.971C18.4544 11.1418 18.5394 11.3529 18.5389 11.6043C18.5383 11.8557 18.4529 12.0671 18.2827 12.2384C18.1125 12.4098 17.9015 12.4949 17.6495 12.4937H7.71058Z" fill="black"/>
</svg>
