<svg width="48" height="48" viewBox="0 0 48 48" fill="none" xmlns="http://www.w3.org/2000/svg">
<rect width="48" height="48" rx="24" fill="white"/>
<path fill-rule="evenodd" clip-rule="evenodd" d="M20.7373 30.8301C21.1515 30.8301 21.4873 31.1659 21.4873 31.5801C21.4873 31.7533 21.5312 31.9323 21.6262 32.1089C21.7218 32.2868 21.8698 32.4625 22.0735 32.6194C22.2773 32.7763 22.5288 32.9079 22.8169 32.9998C23.1049 33.0917 23.4179 33.1402 23.7369 33.1402C24.0559 33.1402 24.3689 33.0917 24.6568 32.9998C24.945 32.9079 25.1965 32.7763 25.4003 32.6194C25.6039 32.4625 25.7519 32.2868 25.8476 32.1089C25.9426 31.9323 25.9865 31.7533 25.9865 31.5801C25.9865 31.1659 26.3223 30.8301 26.7365 30.8301C27.1507 30.8301 27.4865 31.1659 27.4865 31.5801C27.4865 32.0136 27.3752 32.4354 27.1687 32.8194C26.9629 33.202 26.669 33.5356 26.3155 33.8078C25.9623 34.0799 25.5524 34.2886 25.1127 34.4289C24.6728 34.5692 24.2057 34.6402 23.7369 34.6402C23.2681 34.6402 22.801 34.5692 22.3611 34.4289C21.9213 34.2886 21.5115 34.0799 21.1582 33.8078C20.8048 33.5356 20.5109 33.202 20.3051 32.8194C20.0986 32.4354 19.9873 32.0136 19.9873 31.5801C19.9873 31.1659 20.3231 30.8301 20.7373 30.8301Z" fill="#1B2436"/>
<path fill-rule="evenodd" clip-rule="evenodd" d="M20.1529 14.5057C22.0557 13.5587 24.234 13.3827 26.2424 13.9839C26.6392 14.1027 26.8646 14.5207 26.7458 14.9175C26.627 15.3143 26.209 15.5397 25.8122 15.4209C24.1661 14.9282 22.3807 15.0725 20.8212 15.8486C19.0851 16.7125 17.9875 18.4847 17.9875 20.4239V21.7452C17.9875 23.1689 17.6328 24.5702 16.9553 25.8224L16.7289 26.2409C15.82 27.9208 16.8137 29.9987 18.6919 30.3458C22.0267 30.9622 25.4464 30.9622 28.7813 30.3458L28.9415 30.3162C30.8194 29.9691 31.8656 27.9442 31.0622 26.2117L30.7976 25.641C30.4092 24.8034 30.1567 23.9117 30.0475 22.9993C29.9983 22.588 30.2918 22.2147 30.7031 22.1655C31.1144 22.1163 31.4877 22.4098 31.5369 22.8211C31.6274 23.5771 31.8366 24.316 32.1584 25.0099L32.423 25.5807C33.6387 28.202 32.0555 31.2661 29.2142 31.7912L29.054 31.8208C25.5388 32.4706 21.9344 32.4706 18.4192 31.8208C15.5396 31.2886 14.0161 28.1027 15.4096 25.5271L15.636 25.1086C16.1949 24.0756 16.4875 22.9196 16.4875 21.7452V20.4239C16.4875 17.9155 17.9073 15.6232 20.1529 14.5057Z" fill="#1B2436"/>
<path fill-rule="evenodd" clip-rule="evenodd" d="M29.8604 16.2861C28.8939 16.2861 28.1104 17.0696 28.1104 18.0361C28.1104 19.0026 28.8939 19.7861 29.8604 19.7861C30.8269 19.7861 31.6104 19.0026 31.6104 18.0361C31.6104 17.0696 30.8269 16.2861 29.8604 16.2861ZM26.6104 18.0361C26.6104 16.2412 28.0655 14.7861 29.8604 14.7861C31.6554 14.7861 33.1104 16.2412 33.1104 18.0361C33.1104 19.8311 31.6554 21.2861 29.8604 21.2861C28.0655 21.2861 26.6104 19.8311 26.6104 18.0361Z" fill="#FF4141"/>
<circle cx="30" cy="18" r="2" fill="#FF4141"/>
</svg>
