<svg width="20" height="20" viewBox="0 0 20 20" fill="none" xmlns="http://www.w3.org/2000/svg">
<path d="M6.45999 2.08398C6.45999 1.73881 6.18017 1.45898 5.83499 1.45898C5.48982 1.45898 5.20999 1.73881 5.20999 2.08398V3.40003C4.01055 3.49608 3.22313 3.73179 2.64463 4.31029C2.06613 4.88879 1.83042 5.67621 1.73438 6.87565H18.2689C18.1729 5.67621 17.9372 4.88879 17.3587 4.31029C16.7802 3.73179 15.9927 3.49608 14.7933 3.40003V2.08398C14.7933 1.73881 14.5135 1.45898 14.1683 1.45898C13.8232 1.45898 13.5433 1.73881 13.5433 2.08398V3.34473C12.9889 3.33398 12.3675 3.33398 11.6683 3.33398H8.33499C7.6358 3.33398 7.01438 3.33398 6.45999 3.34473V2.08398Z" fill="#8493B2"/>
<path fill-rule="evenodd" clip-rule="evenodd" d="M1.6665 10C1.6665 9.30083 1.6665 8.67942 1.67725 8.125H18.3224C18.3332 8.67942 18.3332 9.30083 18.3332 10V11.6667C18.3332 14.8093 18.3332 16.3807 17.3568 17.357C16.3806 18.3333 14.8092 18.3333 11.6665 18.3333H8.33317C5.19047 18.3333 3.61913 18.3333 2.64281 17.357C1.6665 16.3807 1.6665 14.8093 1.6665 11.6667V10ZM14.1665 11.6667C14.6268 11.6667 14.9998 11.2936 14.9998 10.8333C14.9998 10.3731 14.6268 10 14.1665 10C13.7063 10 13.3332 10.3731 13.3332 10.8333C13.3332 11.2936 13.7063 11.6667 14.1665 11.6667ZM14.1665 15C14.6268 15 14.9998 14.6269 14.9998 14.1667C14.9998 13.7064 14.6268 13.3333 14.1665 13.3333C13.7063 13.3333 13.3332 13.7064 13.3332 14.1667C13.3332 14.6269 13.7063 15 14.1665 15ZM10.8332 10.8333C10.8332 11.2936 10.4601 11.6667 9.99984 11.6667C9.53959 11.6667 9.1665 11.2936 9.1665 10.8333C9.1665 10.3731 9.53959 10 9.99984 10C10.4601 10 10.8332 10.3731 10.8332 10.8333ZM10.8332 14.1667C10.8332 14.6269 10.4601 15 9.99984 15C9.53959 15 9.1665 14.6269 9.1665 14.1667C9.1665 13.7064 9.53959 13.3333 9.99984 13.3333C10.4601 13.3333 10.8332 13.7064 10.8332 14.1667ZM5.83317 11.6667C6.2934 11.6667 6.6665 11.2936 6.6665 10.8333C6.6665 10.3731 6.2934 10 5.83317 10C5.37294 10 4.99984 10.3731 4.99984 10.8333C4.99984 11.2936 5.37294 11.6667 5.83317 11.6667ZM5.83317 15C6.2934 15 6.6665 14.6269 6.6665 14.1667C6.6665 13.7064 6.2934 13.3333 5.83317 13.3333C5.37294 13.3333 4.99984 13.7064 4.99984 14.1667C4.99984 14.6269 5.37294 15 5.83317 15Z" fill="#8493B2"/>
</svg>
