<svg width="20" height="20" viewBox="0 0 20 20" fill="none" xmlns="http://www.w3.org/2000/svg">
<path d="M6.45841 2.08337C6.45841 1.7382 6.17858 1.45837 5.83341 1.45837C5.48823 1.45837 5.20841 1.7382 5.20841 2.08337V3.39942C4.00896 3.49547 3.22155 3.73118 2.64305 4.30968C2.06455 4.88818 1.82883 5.6756 1.73279 6.87504H18.2673C18.1713 5.6756 17.9356 4.88818 17.3571 4.30968C16.7786 3.73118 15.9912 3.49547 14.7917 3.39942V2.08337C14.7917 1.7382 14.5119 1.45837 14.1667 1.45837C13.8216 1.45837 13.5417 1.7382 13.5417 2.08337V3.34412C12.9873 3.33337 12.3659 3.33337 11.6667 3.33337H8.33341C7.63421 3.33337 7.0128 3.33337 6.45841 3.34412V2.08337Z" fill="#1C3103"/>
<path fill-rule="evenodd" clip-rule="evenodd" d="M1.66667 10C1.66667 9.30083 1.66667 8.67942 1.67742 8.125H18.3226C18.3333 8.67942 18.3333 9.30083 18.3333 10V11.6667C18.3333 14.8093 18.3333 16.3807 17.357 17.357C16.3807 18.3333 14.8093 18.3333 11.6667 18.3333H8.33333C5.19063 18.3333 3.61929 18.3333 2.64297 17.357C1.66667 16.3807 1.66667 14.8093 1.66667 11.6667V10ZM14.1667 11.6667C14.6269 11.6667 15 11.2936 15 10.8333C15 10.3731 14.6269 10 14.1667 10C13.7064 10 13.3333 10.3731 13.3333 10.8333C13.3333 11.2936 13.7064 11.6667 14.1667 11.6667ZM14.1667 15C14.6269 15 15 14.6269 15 14.1667C15 13.7064 14.6269 13.3333 14.1667 13.3333C13.7064 13.3333 13.3333 13.7064 13.3333 14.1667C13.3333 14.6269 13.7064 15 14.1667 15ZM10.8333 10.8333C10.8333 11.2936 10.4602 11.6667 10 11.6667C9.53975 11.6667 9.16667 11.2936 9.16667 10.8333C9.16667 10.3731 9.53975 10 10 10C10.4602 10 10.8333 10.3731 10.8333 10.8333ZM10.8333 14.1667C10.8333 14.6269 10.4602 15 10 15C9.53975 15 9.16667 14.6269 9.16667 14.1667C9.16667 13.7064 9.53975 13.3333 10 13.3333C10.4602 13.3333 10.8333 13.7064 10.8333 14.1667ZM5.83333 11.6667C6.29357 11.6667 6.66667 11.2936 6.66667 10.8333C6.66667 10.3731 6.29357 10 5.83333 10C5.3731 10 5 10.3731 5 10.8333C5 11.2936 5.3731 11.6667 5.83333 11.6667ZM5.83333 15C6.29357 15 6.66667 14.6269 6.66667 14.1667C6.66667 13.7064 6.29357 13.3333 5.83333 13.3333C5.3731 13.3333 5 13.7064 5 14.1667C5 14.6269 5.3731 15 5.83333 15Z" fill="#1C3103"/>
</svg>
