<svg width="18" height="18" viewBox="0 0 18 18" fill="none" xmlns="http://www.w3.org/2000/svg">
<path d="M5.81267 1.87476C5.81267 1.5641 5.56083 1.31226 5.25017 1.31226C4.93952 1.31226 4.68767 1.5641 4.68767 1.87476V3.0592C3.60818 3.14564 2.8995 3.35778 2.37885 3.87843C1.8582 4.39908 1.64606 5.10776 1.55962 6.18726H16.4407C16.3543 5.10776 16.1421 4.39908 15.6215 3.87843C15.1008 3.35778 14.3921 3.14564 13.3127 3.0592V1.87476C13.3127 1.5641 13.0608 1.31226 12.7502 1.31226C12.4395 1.31226 12.1877 1.5641 12.1877 1.87476V3.00943C11.6887 2.99976 11.1294 2.99976 10.5002 2.99976H7.50017C6.8709 2.99976 6.31163 2.99976 5.81267 3.00943V1.87476Z" fill="#E7E7E7"/>
<path fill-rule="evenodd" clip-rule="evenodd" d="M1.49985 9C1.49985 8.37075 1.49985 7.81148 1.50953 7.3125H16.4902C16.4999 7.81148 16.4999 8.37075 16.4999 9V10.5C16.4999 13.3284 16.4999 14.7427 15.6212 15.6213C14.7425 16.5 13.3283 16.5 10.4999 16.5H7.49985C4.67142 16.5 3.25722 16.5 2.37853 15.6213C1.49985 14.7427 1.49985 13.3284 1.49985 10.5V9ZM12.7499 10.5C13.1641 10.5 13.4999 10.1642 13.4999 9.75C13.4999 9.33577 13.1641 9 12.7499 9C12.3356 9 11.9999 9.33577 11.9999 9.75C11.9999 10.1642 12.3356 10.5 12.7499 10.5ZM12.7499 13.5C13.1641 13.5 13.4999 13.1642 13.4999 12.75C13.4999 12.3358 13.1641 12 12.7499 12C12.3356 12 11.9999 12.3358 11.9999 12.75C11.9999 13.1642 12.3356 13.5 12.7499 13.5ZM9.74985 9.75C9.74985 10.1642 9.41408 10.5 8.99985 10.5C8.58563 10.5 8.24985 10.1642 8.24985 9.75C8.24985 9.33577 8.58563 9 8.99985 9C9.41408 9 9.74985 9.33577 9.74985 9.75ZM9.74985 12.75C9.74985 13.1642 9.41408 13.5 8.99985 13.5C8.58563 13.5 8.24985 13.1642 8.24985 12.75C8.24985 12.3358 8.58563 12 8.99985 12C9.41408 12 9.74985 12.3358 9.74985 12.75ZM5.24985 10.5C5.66406 10.5 5.99985 10.1642 5.99985 9.75C5.99985 9.33577 5.66406 9 5.24985 9C4.83564 9 4.49985 9.33577 4.49985 9.75C4.49985 10.1642 4.83564 10.5 5.24985 10.5ZM5.24985 13.5C5.66406 13.5 5.99985 13.1642 5.99985 12.75C5.99985 12.3358 5.66406 12 5.24985 12C4.83564 12 4.49985 12.3358 4.49985 12.75C4.49985 13.1642 4.83564 13.5 5.24985 13.5Z" fill="#E7E7E7"/>
</svg>
