<svg width="16" height="16" viewBox="0 0 16 16" fill="none" xmlns="http://www.w3.org/2000/svg">
<g clip-path="url(#clip0_3929_2956)">
<path d="M8.72708 15.1012L8.71938 15.1026L8.66969 15.1271L8.65569 15.1299L8.64589 15.1271L8.5962 15.1026C8.58873 15.1003 8.58313 15.1014 8.5794 15.1061L8.5766 15.1131L8.5647 15.4127L8.5682 15.4266L8.5752 15.4357L8.64799 15.4875L8.65849 15.4903L8.66689 15.4875L8.73968 15.4357L8.74807 15.4245L8.75087 15.4127L8.73898 15.1138C8.73711 15.1063 8.73314 15.1021 8.72708 15.1012ZM8.91255 15.0221L8.90345 15.0235L8.77397 15.0886L8.76697 15.0956L8.76487 15.1033L8.77747 15.4043L8.78097 15.4127L8.78657 15.4175L8.92725 15.4826C8.93611 15.485 8.94288 15.4831 8.94754 15.477L8.95034 15.4672L8.92655 15.0375C8.92421 15.0291 8.91955 15.024 8.91255 15.0221ZM8.41213 15.0235C8.40904 15.0216 8.40536 15.021 8.40184 15.0218C8.39832 15.0226 8.39523 15.0247 8.39323 15.0277L8.38903 15.0375L8.36523 15.4672C8.3657 15.4756 8.36967 15.4812 8.37713 15.484L8.38763 15.4826L8.52831 15.4175L8.53531 15.412L8.53811 15.4043L8.55001 15.1033L8.54791 15.0949L8.54091 15.0879L8.41213 15.0235Z" fill="#272727"/>
<path d="M13.9118 2.32136C14.0975 2.32136 14.2755 2.3951 14.4067 2.52635C14.538 2.65761 14.6117 2.83563 14.6117 3.02125C14.6117 3.20687 14.538 3.38489 14.4067 3.51615C14.2755 3.6474 14.0975 3.72114 13.9118 3.72114H13.2119L13.2098 3.77083L12.5568 12.9191C12.5317 13.2723 12.3737 13.6028 12.1146 13.8441C11.8555 14.0854 11.5146 14.2195 11.1606 14.2195H5.46414C5.11009 14.2195 4.76919 14.0854 4.5101 13.8441C4.25102 13.6028 4.09299 13.2723 4.06785 12.9191L3.41485 3.77153L3.41346 3.72114H2.71356C2.52794 3.72114 2.34992 3.6474 2.21867 3.51615C2.08741 3.38489 2.01367 3.20687 2.01367 3.02125C2.01367 2.83563 2.08741 2.65761 2.21867 2.52635C2.34992 2.3951 2.52794 2.32136 2.71356 2.32136H13.9118ZM9.71248 0.22168C9.8981 0.22168 10.0761 0.295418 10.2074 0.426673C10.3386 0.557929 10.4124 0.735949 10.4124 0.921572C10.4124 1.1072 10.3386 1.28522 10.2074 1.41647C10.0761 1.54773 9.8981 1.62146 9.71248 1.62146H6.91291C6.72729 1.62146 6.54927 1.54773 6.41802 1.41647C6.28676 1.28522 6.21302 1.1072 6.21302 0.921572C6.21302 0.735949 6.28676 0.557929 6.41802 0.426673C6.54927 0.295418 6.72729 0.22168 6.91291 0.22168H9.71248Z" fill="#0A0A0A"/>
</g>
<defs>
<clipPath id="clip0_3929_2956">
<rect width="15.5555" height="15.5556" fill="white" transform="translate(0.222656 0.22168)"/>
</clipPath>
</defs>
</svg>
