<svg width="16" height="16" viewBox="0 0 16 16" fill="none" xmlns="http://www.w3.org/2000/svg">
<path d="M13.7046 5.51562C13.937 5.74801 13.937 6.13187 13.7046 6.36426L9.35791 10.7109C8.99934 11.0694 8.51379 11.2734 8.00049 11.2734C7.48834 11.2734 7.00342 11.0759 6.64404 10.71L2.29639 6.36426L2.29443 6.36133C2.18575 6.24489 2.12061 6.09415 2.12061 5.93945C2.12068 5.78779 2.17672 5.63529 2.29639 5.51562C2.52877 5.28324 2.91264 5.28324 3.14502 5.51562L7.49072 9.8623C7.77167 10.1433 8.22931 10.1433 8.51025 9.8623L12.856 5.51562C13.0883 5.28324 13.4722 5.28324 13.7046 5.51562Z" fill="#B2C2D2" stroke="#B2C2D2" stroke-width="0.2"/>
</svg>
