<svg width="32" height="32" viewBox="0 0 32 32" fill="none" xmlns="http://www.w3.org/2000/svg">
<rect width="32" height="32" rx="6" fill="#F2F8FF"/>
<path d="M23.5 17.7246C23.928 17.7246 24.2754 18.072 24.2754 18.5V18.5459C24.2754 19.6816 24.2755 20.612 24.1768 21.3467C24.0737 22.1133 23.8495 22.7813 23.3154 23.3154C22.7813 23.8496 22.1133 24.0737 21.3467 24.1768C20.612 24.2755 19.6816 24.2754 18.5459 24.2754H13.4541C12.3184 24.2754 11.388 24.2755 10.6533 24.1768C9.88674 24.0737 9.21866 23.8495 8.68457 23.3154C8.15048 22.7813 7.92633 22.1133 7.82324 21.3467C7.72447 20.612 7.72459 19.6816 7.72461 18.5459V18.5C7.72461 18.072 8.07198 17.7246 8.5 17.7246C8.92802 17.7246 9.27539 18.072 9.27539 18.5C9.27539 19.7003 9.27644 20.5225 9.35938 21.1396C9.43933 21.7344 9.5821 22.0215 9.78027 22.2197C9.97843 22.4179 10.2656 22.5606 10.8604 22.6406C11.4774 22.7235 12.2997 22.7246 13.5 22.7246H18.5C19.7003 22.7246 20.5225 22.7235 21.1396 22.6406C21.7344 22.5606 22.0215 22.4179 22.2197 22.2197C22.4179 22.0215 22.5606 21.7344 22.6406 21.1396C22.7235 20.5225 22.7246 19.7003 22.7246 18.5C22.7246 18.072 23.072 17.7246 23.5 17.7246Z" fill="#1B51BB" stroke="#1B51BB" stroke-width="0.3"/>
<path d="M15.9995 7.72461C16.4275 7.72461 16.7749 8.07198 16.7749 8.5V17.3359L18.7612 15.1641C19.05 14.8485 19.5402 14.8268 19.856 15.1152C20.1719 15.4041 20.1936 15.8951 19.9048 16.2109L16.5718 19.8564C16.425 20.017 16.2171 20.1084 15.9995 20.1084C15.7821 20.1083 15.575 20.0168 15.4282 19.8564L12.0942 16.2109C11.8054 15.895 11.8282 15.404 12.144 15.1152C12.4599 14.8269 12.9501 14.8484 13.2388 15.1641L15.2251 17.3359V8.5C15.2251 8.07209 15.5717 7.72479 15.9995 7.72461Z" fill="#1B51BB" stroke="#1B51BB" stroke-width="0.3"/>
</svg>
