<svg width="25" height="25" viewBox="0 0 25 25" fill="none" xmlns="http://www.w3.org/2000/svg">
<path d="M16.977 3.06858C17.144 3.08358 17.217 3.28758 17.097 3.40658L8.777 11.7266C8.68301 11.8206 8.61571 11.938 8.582 12.0666L7.582 15.8966C7.54899 16.0231 7.54965 16.1561 7.58393 16.2824C7.6182 16.4086 7.6849 16.5237 7.77739 16.6162C7.86988 16.7087 7.98496 16.7754 8.11119 16.8096C8.23742 16.8439 8.37043 16.8446 8.497 16.8116L12.326 15.8116C12.4547 15.7776 12.5721 15.7099 12.666 15.6156L21.104 7.17758C21.1304 7.15047 21.164 7.1315 21.2009 7.12291C21.2377 7.11431 21.2762 7.11646 21.3119 7.12908C21.3476 7.14171 21.3789 7.16429 21.4021 7.19415C21.4253 7.22401 21.4395 7.2599 21.443 7.29758C21.7942 10.6472 21.7741 14.0254 21.383 17.3706C21.16 19.2756 19.629 20.7706 17.731 20.9836C14.2546 21.3687 10.7464 21.3687 7.27 20.9836C5.371 20.7706 3.84 19.2756 3.617 17.3706C3.20498 13.8456 3.20498 10.2846 3.617 6.75958C3.84 4.85358 5.371 3.35858 7.27 3.14658C10.4945 2.78915 13.7472 2.76301 16.977 3.06858Z" fill="#A7A7A7"/>
<path d="M18.323 4.30147C18.3462 4.27819 18.3738 4.25972 18.4042 4.24712C18.4346 4.23451 18.4671 4.22803 18.5 4.22803C18.5329 4.22803 18.5654 4.23451 18.5958 4.24712C18.6262 4.25972 18.6538 4.27819 18.677 4.30147L20.091 5.71647C20.1377 5.76334 20.1639 5.82681 20.1639 5.89297C20.1639 5.95914 20.1377 6.02261 20.091 6.06947L11.798 14.3645C11.7665 14.3959 11.7271 14.4183 11.684 14.4295L9.77 14.9295C9.72781 14.9405 9.68348 14.9403 9.6414 14.9288C9.59932 14.9174 9.56096 14.8952 9.53013 14.8643C9.4993 14.8335 9.47707 14.7952 9.46565 14.7531C9.45422 14.711 9.454 14.6667 9.465 14.6245L9.965 12.7105C9.97613 12.6674 9.99857 12.628 10.03 12.5965L18.323 4.30147Z" fill="#A7A7A7"/>
</svg>
