<svg width="15" height="15" viewBox="0 0 15 15" fill="none" xmlns="http://www.w3.org/2000/svg">
<path fill-rule="evenodd" clip-rule="evenodd" d="M10.9476 1.10658C11.0483 1.00592 11.1677 0.926066 11.2992 0.871585C11.4307 0.817104 11.5716 0.789062 11.7139 0.789062C11.8562 0.789062 11.9971 0.817104 12.1286 0.871585C12.2601 0.926066 12.3795 1.00592 12.4801 1.10658L13.8943 2.52075C14.0974 2.7239 14.2114 2.99936 14.2114 3.28658C14.2114 3.5738 14.0974 3.84927 13.8943 4.05241L4.34848 13.5991C4.29012 13.6571 4.21589 13.6965 4.13515 13.7124L1.18932 14.3016C1.12204 14.3151 1.05247 14.3118 0.986769 14.292C0.92107 14.2722 0.861283 14.2365 0.812719 14.188C0.764154 14.1395 0.728316 14.0798 0.708387 14.0141C0.688459 13.9484 0.685057 13.8789 0.698483 13.8116L1.28848 10.8657C1.30437 10.785 1.3438 10.7108 1.40182 10.6524L8.76848 3.28658L11.7143 6.23325L12.3035 5.64408L9.35682 2.69741L10.9485 1.10575L10.9476 1.10658Z" fill="#1B51BB"/>
</svg>
