<svg width="16" height="16" viewBox="0 0 16 16" fill="none" xmlns="http://www.w3.org/2000/svg">
<path fill-rule="evenodd" clip-rule="evenodd" d="M3.79932 13.0094H12.3511C12.5131 13.0094 12.6684 13.0777 12.783 13.1993C12.8975 13.3208 12.9619 13.4857 12.9619 13.6576C12.9619 13.8295 12.8975 13.9943 12.783 14.1159C12.6684 14.2375 12.5131 14.3057 12.3511 14.3057H3.79932C3.63731 14.3057 3.48194 14.2375 3.36739 14.1159C3.25283 13.9943 3.18848 13.8295 3.18848 13.6576C3.18848 13.4857 3.25283 13.3208 3.36739 13.1993C3.48194 13.0777 3.63731 13.0094 3.79932 13.0094ZM3.18848 9.7687L9.29687 3.28722L11.1294 5.23166L5.02099 11.7131H3.18848V9.7687ZM9.90771 2.63907L11.1294 1.34277L12.9619 3.28722L11.7396 4.58416L9.90771 2.63907Z" fill="#0A0A0A"/>
</svg>
