<svg width="178" height="166" viewBox="0 0 178 166" fill="none" xmlns="http://www.w3.org/2000/svg">
<path d="M154.444 28.9199H66.0898V98.0563H177.592V50.3485C177.592 38.4983 167.216 28.9199 154.444 28.9199Z" fill="#4CA884"/>
<path d="M177.591 98.424H66.0891C65.8435 98.424 65.7207 98.2398 65.7207 98.0556V28.9192C65.7207 28.6736 65.9049 28.5508 66.0891 28.5508H154.444C167.399 28.5508 177.96 38.3134 177.96 50.3478V98.0556C177.96 98.2398 177.776 98.424 177.591 98.424ZM66.4575 97.6258H177.162V50.2864C177.162 38.6818 166.969 29.2876 154.382 29.2876H66.4575V97.6258Z" fill="#231F20"/>
<path d="M89.237 51.2073V98.1169H42.9414V51.2073C42.9414 38.9273 52.8882 28.9805 65.1682 28.9805H67.133C76.2816 29.0419 84.4478 34.7521 87.702 43.2867C88.009 44.1463 88.316 45.0059 88.5002 45.8655V45.9269C88.5616 45.9883 88.5616 46.1111 88.5616 46.1725C88.9914 47.7689 89.237 49.4881 89.237 51.2073Z" fill="#231F20"/>
<path d="M89.2371 98.4854H42.9415C42.6959 98.4854 42.5117 98.3012 42.5117 98.0556V51.2074C42.5117 38.6818 52.6427 28.5508 65.1683 28.5508H67.1331C76.4659 28.6122 84.8163 34.4452 88.1319 43.164C88.4389 44.0236 88.7459 44.9446 88.9301 45.8042C88.9915 45.927 88.9915 46.0498 88.9915 46.1726C89.4213 47.8304 89.6055 49.5496 89.6055 51.2688V98.117C89.6669 98.3012 89.4827 98.4854 89.2371 98.4854ZM43.3713 97.6258H88.8073V51.2074C88.8073 49.5496 88.6231 47.8918 88.2547 46.234C88.2547 46.1726 88.2547 46.1112 88.1933 45.9884V45.927C88.0091 45.0674 87.7021 44.2078 87.3951 43.4096C84.2023 34.9978 76.1589 29.4718 67.1945 29.349H65.2297C53.1953 29.349 43.4327 39.0502 43.4327 51.0846C43.4327 51.146 43.4327 51.146 43.4327 51.2074L43.3713 97.6258Z" fill="#231F20"/>
<path d="M42.9414 98.0557H89.237V139.071C89.237 150.737 79.7814 160.192 68.1768 160.192C68.1768 160.192 68.1768 160.192 68.1154 160.192H64.0016C52.3356 160.192 42.9414 150.737 42.9414 139.071V98.0557Z" fill="white"/>
<path d="M68.1155 160.561H64.0017C52.1515 160.561 42.5117 150.921 42.5117 139.071V98.0559C42.5117 97.8103 42.6959 97.6875 42.8801 97.6875H89.1757C89.4213 97.6875 89.5441 97.8717 89.5441 98.0559V139.071C89.6055 150.921 79.9657 160.561 68.1155 160.561ZM43.3099 98.4243V139.071C43.3099 150.491 52.5813 159.763 64.0017 159.763H68.1155C79.5359 159.763 88.8073 150.491 88.8073 139.071V98.4243H43.3099Z" fill="#231F20"/>
<path d="M77.5099 135.633H54.6691C54.4235 135.633 54.2393 135.449 54.2393 135.203C54.2393 134.958 54.4235 134.773 54.6691 134.773H77.5099C77.7555 134.773 77.9397 134.958 77.9397 135.203C77.9397 135.449 77.7555 135.633 77.5099 135.633Z" fill="#D1D3D4"/>
<path d="M114.043 63.6717C116.484 63.6717 118.464 61.6924 118.464 59.2509C118.464 56.8093 116.484 54.8301 114.043 54.8301C111.601 54.8301 109.622 56.8093 109.622 59.2509C109.622 61.6924 111.601 63.6717 114.043 63.6717Z" fill="white"/>
<path d="M114.043 64.102C111.403 64.102 109.193 61.953 109.254 59.2514C109.254 56.6112 111.403 54.4008 114.105 54.4622C116.745 54.4622 118.894 56.6112 118.894 59.3128C118.894 61.953 116.745 64.102 114.043 64.102ZM114.043 55.2604C111.833 55.2604 109.991 57.041 109.991 59.3128C109.991 61.5232 111.772 63.3652 114.043 63.3652C116.315 63.3652 118.096 61.5846 118.096 59.3128C118.096 57.041 116.315 55.2604 114.043 55.2604Z" fill="#231F20"/>
<path d="M114.043 55.2601C113.798 55.2601 113.675 55.0759 113.675 54.8917V0.429923C113.675 0.184322 113.859 0.0615234 114.043 0.0615234C114.289 0.0615234 114.412 0.245723 114.412 0.429923V54.8917C114.473 55.0759 114.289 55.2601 114.043 55.2601Z" fill="#231F20"/>
<path d="M130.314 4.48197L114.043 11.85V0.368164H130.314V4.48197Z" fill="white"/>
<path d="M114.043 12.28C113.982 12.28 113.859 12.28 113.797 12.2186C113.675 12.1572 113.613 12.0344 113.613 11.8502V0.429798C113.613 0.184198 113.797 0 114.043 0H130.314C130.56 0 130.744 0.184198 130.744 0.429798V4.5436C130.744 4.7278 130.621 4.8506 130.498 4.912L114.227 12.2186C114.166 12.2186 114.104 12.28 114.043 12.28ZM114.473 0.798202V11.1134L129.884 4.1752V0.798202H114.473Z" fill="#231F20"/>
<path d="M123.314 98.0557H104.648V102.476H123.314V98.0557Z" fill="white"/>
<path d="M123.314 102.907H104.649C104.403 102.907 104.28 102.722 104.28 102.538V98.1174C104.28 97.8718 104.464 97.749 104.649 97.749H123.314C123.56 97.749 123.683 97.9332 123.683 98.1174V102.538C123.744 102.722 123.56 102.907 123.314 102.907ZM105.078 102.108H122.946V98.4244H105.078V102.108Z" fill="#231F20"/>
<path d="M107.657 164.798V102.477H118.893V164.798" fill="white"/>
<path d="M118.893 165.228C118.647 165.228 118.524 165.043 118.524 164.859V102.907H108.086V164.859C108.086 165.105 107.902 165.228 107.718 165.228C107.472 165.228 107.35 165.043 107.35 164.859V102.477C107.35 102.231 107.534 102.108 107.718 102.108H118.954C119.2 102.108 119.323 102.293 119.323 102.477V164.798C119.323 165.043 119.138 165.228 118.893 165.228Z" fill="#231F20"/>
<path d="M107.657 112.239L118.893 120.528V102.477H107.657V112.239Z" fill="#231F20"/>
<path d="M118.894 120.958C118.771 120.958 118.709 120.958 118.648 120.897L107.412 112.608C107.289 112.546 107.228 112.423 107.228 112.239V102.477C107.228 102.231 107.412 102.047 107.657 102.047H118.894C119.139 102.047 119.323 102.231 119.323 102.477V120.467C119.323 120.712 119.139 120.897 118.894 120.958ZM108.087 112.055L118.464 119.669V102.968H108.087V112.055Z" fill="#231F20"/>
<path d="M70.0189 70.2412H69.9575L69.0979 70.1184C68.8523 70.057 68.7295 69.8728 68.7295 69.6272C68.7909 69.3816 68.9751 69.2588 69.2207 69.2588L70.0803 69.3816C70.3259 69.443 70.4487 69.6272 70.4487 69.8728C70.4487 70.1184 70.2645 70.2412 70.0189 70.2412Z" fill="#D1D3D4"/>
<path d="M11.628 98.977C11.3824 98.977 11.1982 98.7928 11.1982 98.5472C11.1982 98.4858 11.1982 98.4244 11.2596 98.363C11.5052 97.8104 11.7508 97.3192 11.9964 96.7666C12.1192 96.5824 12.3648 96.4596 12.549 96.5824C12.7332 96.7052 12.856 96.9508 12.7332 97.135C12.4876 97.6262 12.242 98.1788 11.9964 98.67C11.935 98.8542 11.8122 98.977 11.628 98.977ZM13.163 95.907C13.1016 95.907 13.0402 95.907 12.9788 95.8456C12.7946 95.7228 12.6718 95.4772 12.7946 95.293C13.1016 94.8018 13.4086 94.3106 13.7156 93.8194C13.8384 93.6352 14.084 93.5738 14.3296 93.6966C14.5138 93.8194 14.5752 94.065 14.4524 94.3106C14.1454 94.8018 13.8384 95.293 13.5928 95.7842C13.47 95.8456 13.3472 95.907 13.163 95.907ZM15.005 92.9598C14.9436 92.9598 14.8208 92.9598 14.7594 92.8984C14.5752 92.7756 14.5138 92.53 14.6366 92.2844C15.005 91.7932 15.312 91.3634 15.6804 90.8722C15.8032 90.688 16.1102 90.6266 16.2944 90.8108C16.4786 90.9336 16.54 91.2406 16.3558 91.4248C15.9874 91.8546 15.6804 92.3458 15.312 92.7756C15.312 92.8984 15.1892 92.9598 15.005 92.9598ZM33.7934 92.8984C33.1794 92.837 32.5654 92.7142 32.0128 92.4686C31.7672 92.3458 31.7058 92.1002 31.7672 91.916C31.8286 91.6704 32.1356 91.609 32.3198 91.6704C32.811 91.8546 33.3022 92.0388 33.8548 92.0388C34.1004 92.0388 34.2846 92.223 34.2846 92.4686C34.2232 92.7756 34.039 92.8984 33.7934 92.8984ZM35.5126 92.7142C35.267 92.7142 35.0828 92.53 35.0828 92.2844C35.0828 92.1002 35.2056 91.916 35.3898 91.8546C35.881 91.7318 36.3108 91.4248 36.6792 91.1178C36.8634 90.9336 37.109 90.9336 37.2932 91.1178C37.4774 91.302 37.4774 91.5476 37.2932 91.7318C36.802 92.1616 36.2494 92.53 35.6354 92.7142C35.574 92.7142 35.574 92.7142 35.5126 92.7142ZM30.662 91.609C30.5392 91.609 30.4778 91.5476 30.4164 91.4862C29.9252 91.1178 29.4954 90.688 29.127 90.1968C29.0042 90.0126 29.0042 89.767 29.1884 89.5828C29.3726 89.46 29.6182 89.46 29.8024 89.6442C30.1094 90.074 30.4778 90.4424 30.9076 90.8108C31.0918 90.9336 31.0918 91.2406 30.969 91.4248C30.9076 91.5476 30.7848 91.5476 30.662 91.609ZM37.723 90.381H37.6616C37.416 90.3196 37.2932 90.1354 37.2932 89.8898C37.2932 89.767 37.3546 89.6442 37.3546 89.5214C37.3546 89.153 37.2932 88.7846 37.1704 88.4162C37.109 88.1706 37.2318 87.925 37.416 87.8636C37.6616 87.8022 37.9072 87.925 37.9686 88.1092C38.1528 88.539 38.2142 89.0302 38.2142 89.46C38.2142 89.6442 38.2142 89.8284 38.1528 90.0126C38.1528 90.1968 37.9686 90.3196 37.723 90.381ZM17.154 90.3196C16.9084 90.3196 16.7242 90.1354 16.7242 89.8898C16.7242 89.767 16.7856 89.7056 16.847 89.5828C17.2154 89.153 17.6452 88.7232 18.075 88.2934C18.2592 88.1092 18.5048 88.1092 18.689 88.2934C18.8732 88.4776 18.8732 88.7232 18.689 88.9074C18.2592 89.2758 17.8908 89.7056 17.5224 90.1354C17.461 90.2582 17.3382 90.3196 17.154 90.3196ZM28.5744 88.9074C28.3902 88.9074 28.2674 88.7846 28.206 88.6618C27.9604 88.1092 27.7762 87.4952 27.6534 86.9426C27.592 86.697 27.7762 86.5128 28.0218 86.4514C28.2674 86.39 28.4516 86.5742 28.513 86.8198C28.6358 87.3724 28.7586 87.8636 29.0042 88.3548C29.127 88.539 29.0042 88.846 28.82 88.9074C28.7586 88.9074 28.6358 88.9074 28.5744 88.9074ZM19.6714 87.925C19.5486 87.925 19.4258 87.8636 19.3644 87.8022C19.1802 87.618 19.2416 87.3724 19.4258 87.1882C19.8556 86.8198 20.3468 86.4514 20.838 86.083C21.0222 85.9602 21.2678 85.9602 21.452 86.1444C21.5748 86.3286 21.5748 86.6356 21.3292 86.7584C20.8994 87.0654 20.4082 87.4338 19.9784 87.8022C19.8556 87.8636 19.7942 87.925 19.6714 87.925ZM36.7406 87.1882C36.6178 87.1882 36.495 87.1268 36.3722 87.004C36.0652 86.6356 35.6968 86.2672 35.3284 85.9602L35.267 85.8988C35.0828 85.776 35.0214 85.5304 35.1442 85.2848C35.267 85.1006 35.574 85.0392 35.7582 85.162L35.881 85.2234C36.3722 85.5918 36.7406 85.9602 37.109 86.4514C37.2318 86.6356 37.2318 86.8812 37.0476 87.0654C36.9248 87.1268 36.8634 87.1268 36.7406 87.1882ZM22.4958 85.9602C22.2502 85.9602 22.066 85.776 22.066 85.5304C22.066 85.3462 22.1274 85.2234 22.3116 85.162C22.8028 84.855 23.3554 84.6094 23.908 84.3638C24.1536 84.3024 24.3992 84.4252 24.4606 84.6094C24.522 84.7936 24.4606 85.0392 24.2764 85.162C23.7852 85.4076 23.294 85.6532 22.8028 85.8988C22.6186 85.8988 22.5572 85.8988 22.4958 85.9602ZM28.0218 85.5304C27.7762 85.5304 27.592 85.2848 27.592 85.0392C27.6534 84.4252 27.7148 83.8112 27.899 83.2586C27.9604 83.013 28.206 82.8902 28.4516 82.9516C28.5744 83.013 28.6972 83.1358 28.7586 83.2586C28.82 83.1972 28.9428 83.1358 29.0656 83.1358H29.3112C29.8024 83.1358 30.2936 83.1358 30.7848 83.1972C31.0304 83.1972 31.2146 83.4428 31.1532 83.6884C31.1532 83.934 30.9076 84.1182 30.662 84.0568C30.1708 83.9954 29.741 83.9954 29.2498 83.9954H29.0042C28.82 83.9954 28.6972 83.934 28.6358 83.7498C28.513 84.1796 28.4516 84.6094 28.4516 85.1006C28.4516 85.2848 28.2674 85.469 28.0218 85.5304ZM34.039 85.0392C33.9776 85.0392 33.9162 85.0392 33.8548 84.9778C33.3636 84.7322 32.8724 84.548 32.3198 84.4252C32.0742 84.3638 31.9514 84.1182 32.0128 83.8726C32.0742 83.627 32.3198 83.5042 32.504 83.5656C33.0566 83.7498 33.6706 83.934 34.1618 84.1796C34.346 84.3024 34.4688 84.548 34.346 84.7322C34.346 84.9164 34.2232 85.0392 34.039 85.0392ZM25.6272 84.548C25.3816 84.548 25.1974 84.3638 25.1974 84.1182C25.1974 83.934 25.3202 83.7498 25.5044 83.6884C26.057 83.5042 26.671 83.3814 27.2236 83.32C27.4692 83.2586 27.6534 83.4428 27.7148 83.6884C27.7762 83.934 27.592 84.1182 27.3464 84.1796C26.7938 84.241 26.2412 84.3638 25.75 84.548H25.6272ZM28.8814 82.2148C28.6358 82.2148 28.4516 82.0306 28.4516 81.785C28.4516 81.7236 28.4516 81.6622 28.513 81.6008C28.7586 81.0482 29.0656 80.557 29.3726 80.0044C29.4954 79.8202 29.741 79.7588 29.9866 79.8816C30.2322 80.0044 30.2322 80.25 30.1094 80.4956C29.8024 80.9868 29.5568 81.478 29.3112 81.9692C29.1884 82.092 29.0656 82.1534 28.8814 82.2148ZM30.7234 79.2676C30.6006 79.2676 30.5392 79.2062 30.4778 79.2062C30.2936 79.0834 30.2322 78.7764 30.4164 78.5922C30.7848 78.1624 31.1532 77.6712 31.583 77.2414C31.7672 77.0572 32.0128 77.0572 32.197 77.2414C32.3812 77.4256 32.3812 77.6712 32.197 77.8554C31.8286 78.2852 31.3988 78.715 31.0918 79.1448C30.969 79.2062 30.8462 79.2676 30.7234 79.2676ZM33.425 76.6274L33.0566 76.3818L32.811 76.0748C33.3022 75.645 33.732 75.338 34.1618 74.9696C34.346 74.7854 34.5916 74.8468 34.7758 75.031C34.96 75.2152 34.8986 75.4608 34.7144 75.645C34.7144 75.645 34.7144 75.645 34.653 75.645C34.2846 75.8906 33.8548 76.259 33.425 76.6274ZM35.8196 74.724C35.6968 74.724 35.574 74.6626 35.4512 74.5398C35.3284 74.3556 35.3898 74.0486 35.574 73.9258C36.0652 73.6188 36.5564 73.3118 37.0476 73.0048C37.2318 72.882 37.5388 72.9434 37.6616 73.1276C37.7844 73.3118 37.723 73.5574 37.5388 73.7416C37.5388 73.7416 37.5388 73.7416 37.4774 73.7416C36.9862 74.0486 36.495 74.3556 36.0652 74.6626C36.0038 74.6626 35.9424 74.6626 35.8196 74.724ZM38.7668 72.9434C38.5826 72.9434 38.4598 72.882 38.3984 72.6978C38.2756 72.5136 38.337 72.2066 38.5826 72.1452C39.0738 71.8996 39.6264 71.654 40.179 71.4084C40.3632 71.2856 40.6702 71.4084 40.7316 71.5926C40.8544 71.8382 40.7316 72.0838 40.5474 72.1452C39.9948 72.3908 39.5036 72.6364 39.0124 72.882C38.951 72.9434 38.8896 72.9434 38.7668 72.9434ZM41.9596 71.5312C41.7754 71.5312 41.6526 71.4084 41.5912 71.2856C41.5298 71.04 41.5912 70.7944 41.8368 70.733C42.3894 70.5488 42.942 70.3646 43.4946 70.1804C43.7402 70.119 43.9858 70.2418 44.0472 70.4874C44.1086 70.733 43.9858 70.9786 43.7402 71.04C43.1876 71.2242 42.635 71.4084 42.1438 71.5926C42.021 71.5312 42.021 71.5312 41.9596 71.5312ZM45.2138 70.4874C44.9682 70.4874 44.784 70.3032 44.784 70.0576C44.784 69.8734 44.9068 69.6892 45.091 69.6892C45.6436 69.5664 46.1962 69.3822 46.8102 69.2594C47.0558 69.198 47.3014 69.3822 47.3014 69.5664C47.3628 69.812 47.1786 70.0576 46.9944 70.0576C46.4418 70.1804 45.8892 70.3032 45.3366 70.4874C45.2752 70.4874 45.2752 70.4874 45.2138 70.4874ZM67.502 69.812H67.4406C66.888 69.7506 66.3354 69.6278 65.7214 69.5664C65.4758 69.505 65.353 69.3208 65.353 69.0752C65.353 68.8296 65.5986 68.6454 65.8442 68.7068L67.5634 68.9524C67.809 69.0138 67.9318 69.198 67.9318 69.4436C67.8704 69.6892 67.6862 69.812 67.502 69.812ZM48.5908 69.7506C48.3452 69.7506 48.161 69.5664 48.161 69.3208C48.161 69.1366 48.2838 68.9524 48.5294 68.891C49.082 68.7682 49.696 68.7068 50.2486 68.6454C50.4942 68.584 50.6784 68.7682 50.7398 69.0138C50.8012 69.2594 50.617 69.4436 50.3714 69.505C49.8188 69.5664 49.2662 69.6892 48.6522 69.7506H48.5908ZM64.0636 69.3822C63.4496 69.3208 62.897 69.2594 62.283 69.198C62.0374 69.198 61.8532 68.9524 61.9146 68.7068C61.9146 68.4612 62.1602 68.277 62.4058 68.3384C62.9584 68.3998 63.5724 68.4612 64.125 68.5226C64.3706 68.5226 64.5548 68.7682 64.5548 68.9524C64.4934 69.198 64.3092 69.3822 64.0636 69.3822ZM52.0292 69.2594C51.7836 69.2594 51.5994 69.0138 51.5994 68.8296C51.5994 68.6454 51.7836 68.4612 51.9678 68.3998C52.5204 68.3384 53.1344 68.277 53.687 68.277C53.9326 68.277 54.1168 68.3998 54.1168 68.6454C54.1168 68.6454 54.1168 68.6454 54.1168 68.7068C54.1168 68.9524 53.9326 69.1366 53.7484 69.1366C53.1958 69.1366 52.6432 69.198 52.0292 69.2594ZM60.6252 69.0752C60.0726 69.0138 59.4586 69.0138 58.906 69.0138C58.6604 69.0138 58.4762 68.8296 58.4762 68.584C58.4762 68.3384 58.6604 68.1542 58.906 68.1542L60.6252 68.2156C60.8708 68.2156 61.055 68.3998 61.055 68.6454C61.1164 68.891 60.9322 69.0752 60.6252 69.0752ZM55.4676 69.0138C55.222 69.0138 55.0378 68.8296 55.0378 68.584C55.0378 68.3384 55.222 68.1542 55.4676 68.1542C56.0202 68.1542 56.6342 68.1542 57.1868 68.0928C57.4324 68.0928 57.6166 68.277 57.6166 68.5226C57.6166 68.7682 57.4324 68.9524 57.1868 68.9524C56.6342 69.0138 56.0816 69.0138 55.4676 69.0138Z" fill="#D1D3D4"/>
<path d="M10.6451 101.433C10.5837 101.433 10.5837 101.433 10.5223 101.433C10.2767 101.372 10.1539 101.126 10.2767 100.88C10.3995 100.573 10.4609 100.328 10.5837 100.082C10.6451 99.8366 10.8907 99.7752 11.1363 99.8366C11.3819 99.898 11.4433 100.144 11.3819 100.389C11.2591 100.635 11.1977 100.942 11.0749 101.187C11.0135 101.31 10.8293 101.433 10.6451 101.433Z" fill="#D1D3D4"/>
<path d="M59.1507 57.4086C58.9665 57.4086 58.7823 57.2858 58.7209 57.0402C58.6595 56.7946 58.8437 56.6104 59.0893 56.549C59.3349 56.4876 59.5805 56.4262 59.8261 56.3034C60.0717 56.242 60.3173 56.3034 60.3787 56.549C60.4401 56.7946 60.3787 57.0402 60.1331 57.1016C59.8261 57.2244 59.5191 57.2858 59.2121 57.3472L59.1507 57.4086Z" fill="#D1D3D4"/>
<path d="M57.4935 57.4699C56.8795 57.4085 56.2655 57.2857 55.7129 57.1629C55.4673 57.1015 55.3445 56.8559 55.4059 56.6717C55.4673 56.4261 55.7129 56.3033 55.9585 56.3647C56.5111 56.4875 57.0023 56.6103 57.5549 56.6717C57.8005 56.6717 57.9847 56.8559 57.9847 57.1015C57.9847 57.3471 57.7391 57.4699 57.4935 57.4699ZM54.1779 56.6103C54.1165 56.6103 54.0551 56.6103 54.0551 56.6103L52.4587 56.0577C52.2131 55.9963 52.0903 55.7507 52.2131 55.5051C52.3359 55.2595 52.5201 55.1367 52.7657 55.2595L54.3621 55.8121C54.6077 55.8735 54.7305 56.1191 54.6077 56.3647C54.5463 56.5489 54.3621 56.6717 54.1779 56.6103ZM50.9851 55.4437C50.9237 55.4437 50.8623 55.4437 50.8623 55.3823L49.2659 54.7683C49.0203 54.7069 48.9589 54.4613 49.0203 54.2157C49.0817 53.9701 49.3273 53.9087 49.5729 53.9701L51.1693 54.5841C51.4149 54.6455 51.5377 54.8911 51.4149 55.1367C51.3535 55.3823 51.1693 55.4437 50.9851 55.4437ZM47.7923 54.2157C47.7309 54.2157 47.6695 54.2157 47.6081 54.1543C47.0555 53.9701 46.5643 53.7245 46.0117 53.4789C45.7661 53.3561 45.7047 53.1105 45.7661 52.9263C45.8275 52.7421 46.1345 52.6193 46.3187 52.6807C46.8099 52.9263 47.3625 53.1105 47.9151 53.2947C48.1607 53.3561 48.2221 53.6631 48.1607 53.8473C48.1607 54.1543 47.9765 54.2771 47.7923 54.2157ZM44.6609 52.9263C44.5995 52.9263 44.5381 52.9263 44.4767 52.8649C43.9241 52.6193 43.4329 52.3737 42.9417 52.1281C42.6961 52.0667 42.6347 51.8211 42.6961 51.5755C42.7575 51.3299 43.0031 51.2685 43.2487 51.3299H43.3101C43.8013 51.5755 44.3539 51.8211 44.8451 52.0053C45.0907 52.1281 45.1521 52.3737 45.0907 52.5579C45.0293 52.8649 44.8451 52.9263 44.6609 52.9263ZM41.5909 51.4527C41.5295 51.4527 41.4681 51.4527 41.4067 51.3913C40.9155 51.1457 40.4243 50.8387 39.8717 50.5931C39.6875 50.4703 39.5647 50.2247 39.6875 49.9791C39.8103 49.7949 40.0559 49.6721 40.3015 49.7949C40.7927 50.0405 41.2839 50.3475 41.7751 50.5931C41.9593 50.7159 42.0821 50.9615 41.9593 51.1457C41.9593 51.3913 41.7751 51.4527 41.5909 51.4527ZM38.6437 49.7949C38.5823 49.7949 38.4595 49.7949 38.3981 49.7335C37.9069 49.4265 37.4157 49.1195 36.9245 48.8125C36.7403 48.6897 36.6789 48.4441 36.8017 48.1985C36.9245 48.0143 37.1701 47.9529 37.4157 48.0757C37.4157 48.0757 37.4157 48.0757 37.4771 48.0757C37.9683 48.3827 38.3981 48.6897 38.8893 48.9967C39.0735 49.1195 39.1349 49.3651 39.0121 49.6107C38.9507 49.7335 38.7665 49.7949 38.6437 49.7949ZM35.8193 47.8915C35.7579 47.8915 35.6351 47.8915 35.5737 47.8301L35.0825 47.4617C34.7755 47.2161 34.5299 47.0319 34.2229 46.7863C34.0387 46.6635 33.9773 46.3565 34.1615 46.1723C34.2843 45.9881 34.5913 45.9881 34.7755 46.1109C35.0211 46.3565 35.3281 46.5407 35.5737 46.7863C35.7579 46.9091 35.8807 47.0319 36.0649 47.1547C36.2491 47.2775 36.3105 47.5845 36.1877 47.7687C36.1263 47.8301 35.9421 47.8915 35.8193 47.8915ZM33.2405 45.7425C33.1177 45.7425 32.9949 45.6811 32.9335 45.6197C32.5037 45.2513 32.1353 44.8215 31.7055 44.3917C31.5213 44.2075 31.5213 43.9619 31.7055 43.7777C31.8897 43.5935 32.1353 43.5935 32.3195 43.7777C32.6879 44.2075 33.1177 44.5759 33.4861 44.9443C33.6703 45.1285 33.6703 45.3741 33.4861 45.5583C33.4247 45.6811 33.3019 45.7425 33.2405 45.7425ZM30.9073 43.2865C30.7845 43.2865 30.6617 43.2251 30.6003 43.1637C30.2319 42.7339 29.8635 42.2427 29.5565 41.8129C29.4337 41.6287 29.4337 41.3831 29.6179 41.1989C29.8021 41.0761 30.0477 41.0761 30.2319 41.2603C30.2319 41.2603 30.2319 41.3217 30.2933 41.3217C30.6003 41.7515 30.9687 42.1813 31.3371 42.6111C31.4599 42.7953 31.4599 43.0409 31.2757 43.2251C31.0915 43.2251 30.9687 43.2865 30.9073 43.2865ZM28.8811 40.5235C28.7583 40.5235 28.5741 40.4621 28.5127 40.3393C28.2057 39.8481 27.8987 39.3569 27.6531 38.8657C27.5303 38.6815 27.5917 38.3745 27.8373 38.3131C28.0215 38.1903 28.3285 38.2517 28.3899 38.4973C28.6355 38.9885 28.9425 39.4797 29.2495 39.9709C29.3723 40.1551 29.3109 40.4621 29.1267 40.5849C29.0653 40.5235 28.9425 40.5235 28.8811 40.5235ZM27.2847 37.5149C27.1005 37.5149 26.9777 37.3921 26.9163 37.2693C26.6707 36.7167 26.4865 36.1641 26.3023 35.6729C26.2409 35.4273 26.3637 35.1817 26.5479 35.1203C26.7935 35.0589 27.0391 35.1817 27.1005 35.3659C27.2847 35.8571 27.4689 36.4097 27.7145 36.9009C27.8373 37.1465 27.7145 37.3921 27.4689 37.4535C27.4075 37.5149 27.3461 37.5149 27.2847 37.5149ZM26.2409 34.3221C26.0567 34.3221 25.8725 34.1993 25.8111 34.0151C25.6883 33.4625 25.5655 32.8485 25.5041 32.2959C25.4427 32.0503 25.6269 31.8661 25.8725 31.8047C26.1181 31.8047 26.3023 31.9275 26.3637 32.1731C26.4251 32.7257 26.5479 33.2783 26.6707 33.8309C26.7321 34.0765 26.6093 34.3221 26.3637 34.3221H26.2409Z" fill="#D1D3D4"/>
<path d="M25.7491 30.9458C25.5035 30.9458 25.3193 30.7616 25.3193 30.516C25.3193 30.209 25.3193 29.902 25.3193 29.6564C25.3193 29.4108 25.5035 29.2266 25.7491 29.2266C25.9947 29.2266 26.1789 29.4108 26.1789 29.6564C26.1789 29.9634 26.1789 30.209 26.1789 30.516C26.1789 30.7002 25.9947 30.8844 25.7491 30.9458Z" fill="#D1D3D4"/>
<path d="M26.7315 19.0954C32.0119 14.429 33.7311 6.93821 31.0909 0.491211C31.0909 0.491211 25.0123 0.614009 23.1089 7.67501C21.2055 14.736 26.7315 19.0954 26.7315 19.0954Z" fill="white"/>
<path d="M26.7324 19.5859C26.6096 19.5859 26.5482 19.5245 26.4868 19.5245C26.4254 19.4631 20.7152 14.8581 22.7414 7.61287C24.7676 0.367673 31.0918 0.12207 31.1532 0.12207C31.3374 0.12207 31.5216 0.244871 31.583 0.367671C34.2232 7.06027 32.4426 14.6739 27.0394 19.4631C26.9166 19.5245 26.7938 19.5245 26.7324 19.5859ZM30.7848 0.920272C29.5568 1.04307 25.136 1.96408 23.4782 7.73568C21.8204 13.5073 25.6272 17.4983 26.671 18.4807C28.1446 17.2527 34.346 10.9285 30.7848 0.920272Z" fill="#D1D3D4"/>
<path d="M27.53 23.5773C27.3458 23.5773 27.1616 23.4545 27.1616 23.2703C23.7232 13.9989 30.4772 0.797951 30.7842 0.245351C30.907 0.061151 31.1526 -0.0616508 31.3368 0.0611492C31.521 0.183949 31.6438 0.42955 31.521 0.61375C31.4596 0.73655 24.6442 13.9989 27.9598 22.9633C28.0212 23.1475 27.9598 23.3932 27.7142 23.516C27.5914 23.5774 27.53 23.5773 27.53 23.5773Z" fill="#D1D3D4"/>
<path d="M16.1709 106.528C21.4513 111.195 23.1705 118.686 20.5303 125.194C20.5303 125.194 14.4517 125.071 12.5483 118.01C10.6449 110.949 16.1709 106.528 16.1709 106.528Z" fill="white"/>
<path d="M20.5305 125.624C20.4691 125.624 14.1449 125.379 12.1187 118.134C10.0925 110.888 15.8641 106.283 15.8641 106.222C16.0483 106.099 16.2325 106.099 16.4167 106.222C21.7585 111.011 23.6005 118.686 20.8989 125.317C20.8989 125.502 20.7147 125.624 20.5305 125.624ZM16.1711 107.082C15.0659 108.064 11.3205 111.994 12.9783 117.827C14.5747 123.66 19.0569 124.519 20.2849 124.642C22.6181 118.563 21.0217 111.625 16.1711 107.082Z" fill="#D1D3D4"/>
<path d="M20.5303 125.624C20.3461 125.624 20.2233 125.563 20.1619 125.379C19.8549 124.826 13.1623 111.625 16.5393 102.354C16.6007 102.108 16.8463 102.047 17.0919 102.108C17.3375 102.169 17.3989 102.415 17.3375 102.661C14.0833 111.564 20.8373 124.826 20.8987 124.949C21.0215 125.133 20.8987 125.44 20.7145 125.563C20.7145 125.563 20.5917 125.563 20.5303 125.624Z" fill="#D1D3D4"/>
<path d="M19.6089 54.7076C14.0215 58.9442 6.34655 59.2512 0.452148 55.4444C0.452148 55.4444 1.74155 49.55 9.04815 48.9974C16.3547 48.4448 19.6089 54.7076 19.6089 54.7076Z" fill="white"/>
<path d="M9.47863 58.5753C6.22443 58.5139 2.97023 57.5929 0.207227 55.8123C0.0230266 55.6895 -0.0383753 55.5053 0.0230247 55.3211C0.0230247 55.2597 1.49662 49.1197 8.98742 48.5057C16.4782 47.8917 19.9166 54.4001 19.978 54.4615C20.1008 54.6457 20.0394 54.8299 19.8552 55.0141C16.8466 57.2859 13.224 58.5139 9.47863 58.5753ZM0.944025 55.2597C10.0926 60.6629 17.4606 55.8123 18.9956 54.6457C18.2588 53.4177 15.1274 48.9355 9.04883 49.4267C2.97023 49.9179 1.31242 54.0931 0.944025 55.2597Z" fill="#D1D3D4"/>
<path d="M23.4159 56.6725C23.3545 56.6725 23.2317 56.6725 23.1703 56.6111C15.0655 51.6991 0.697884 55.8129 0.575084 55.8743C0.329484 55.9357 0.0838827 55.8129 0.0224827 55.5673C-0.0389173 55.3217 0.0838828 55.0761 0.329483 55.0147C0.943483 54.8305 15.1883 50.7781 23.6001 55.8743C23.7843 55.9971 23.8457 56.2427 23.7229 56.4883C23.6615 56.6111 23.5387 56.6725 23.4159 56.6725Z" fill="#D1D3D4"/>
</svg>
