<svg width="18" height="18" viewBox="0 0 18 18" fill="none" xmlns="http://www.w3.org/2000/svg">
<path d="M1.6875 5.20312C1.6875 4.815 2.0025 4.5 2.39062 4.5H15.6094C15.7959 4.5 15.9747 4.57408 16.1066 4.70594C16.2384 4.8378 16.3125 5.01664 16.3125 5.20312C16.3125 5.38961 16.2384 5.56845 16.1066 5.70031C15.9747 5.83217 15.7959 5.90625 15.6094 5.90625H2.39062C2.0025 5.90625 1.6875 5.59125 1.6875 5.20312ZM3.9375 9.14062C3.9375 8.7525 4.2525 8.4375 4.64062 8.4375H13.3594C13.5459 8.4375 13.7247 8.51158 13.8566 8.64344C13.9884 8.7753 14.0625 8.95414 14.0625 9.14062C14.0625 9.32711 13.9884 9.50595 13.8566 9.63781C13.7247 9.76967 13.5459 9.84375 13.3594 9.84375H4.64062C4.2525 9.84375 3.9375 9.52875 3.9375 9.14062ZM6.89062 12.375C6.70414 12.375 6.5253 12.4491 6.39344 12.5809C6.26158 12.7128 6.1875 12.8916 6.1875 13.0781C6.1875 13.2646 6.26158 13.4434 6.39344 13.5753C6.5253 13.7072 6.70414 13.7812 6.89062 13.7812H11.1094C11.2959 13.7812 11.4747 13.7072 11.6066 13.5753C11.7384 13.4434 11.8125 13.2646 11.8125 13.0781C11.8125 12.8916 11.7384 12.7128 11.6066 12.5809C11.4747 12.4491 11.2959 12.375 11.1094 12.375H6.89062Z" fill="#282828"/>
</svg>
