<svg width="20" height="20" viewBox="0 0 20 20" fill="none" xmlns="http://www.w3.org/2000/svg">
<path d="M10.0003 1.66663C14.6027 1.66663 18.3337 5.39758 18.3337 9.99996C18.3337 14.6023 14.6027 18.3333 10.0003 18.3333C8.65174 18.3333 7.34851 18.0121 6.17771 17.4066L2.98953 18.296C2.43543 18.4508 1.86081 18.127 1.70608 17.573C1.65488 17.3896 1.6549 17.1957 1.70612 17.0125L2.59583 13.8268C1.98897 12.655 1.66699 11.3502 1.66699 9.99996C1.66699 5.39758 5.39795 1.66663 10.0003 1.66663ZM10.0003 2.91663C6.08831 2.91663 2.91699 6.08794 2.91699 9.99996C2.91699 11.2246 3.22763 12.4028 3.81118 13.4479L3.93673 13.6726L3.00946 16.9928L6.33162 16.066L6.55623 16.1912C7.60038 16.7734 8.77716 17.0833 10.0003 17.0833C13.9123 17.0833 17.0837 13.912 17.0837 9.99996C17.0837 6.08794 13.9123 2.91663 10.0003 2.91663ZM10.0003 12.9166C10.4606 12.9166 10.8337 13.2897 10.8337 13.75C10.8337 14.2102 10.4606 14.5833 10.0003 14.5833C9.54008 14.5833 9.16699 14.2102 9.16699 13.75C9.16699 13.2897 9.54008 12.9166 10.0003 12.9166ZM10.0003 5.62496C11.266 5.62496 12.292 6.65098 12.292 7.91663C12.292 8.75896 12.0441 9.22829 11.4161 9.88213L11.2756 10.0252C10.7573 10.5435 10.6253 10.7635 10.6253 11.25C10.6253 11.5951 10.3455 11.875 10.0003 11.875C9.65516 11.875 9.37533 11.5951 9.37533 11.25C9.37533 10.4076 9.62324 9.93829 10.2512 9.28446L10.3917 9.14138C10.91 8.62313 11.042 8.40304 11.042 7.91663C11.042 7.34133 10.5757 6.87496 10.0003 6.87496C9.46099 6.87496 9.01741 7.28485 8.96408 7.81012L8.95866 7.91663C8.95866 8.2618 8.67883 8.54163 8.33366 8.54163C7.98848 8.54163 7.70866 8.2618 7.70866 7.91663C7.70866 6.65098 8.73466 5.62496 10.0003 5.62496Z" fill="#212121"/>
</svg>
