<svg width="25" height="24" viewBox="0 0 25 24" fill="none" xmlns="http://www.w3.org/2000/svg">
<path d="M20.7007 9.72246L13.2007 2.90646C12.9242 2.65348 12.563 2.51318 12.1882 2.51318C11.8135 2.51318 11.4523 2.65348 11.1757 2.90646L3.67574 9.72246C3.52218 9.86294 3.39954 10.0338 3.31561 10.2243C3.23169 10.4147 3.18831 10.6206 3.18824 10.8287V19.4627C3.18224 19.8407 3.31574 20.2082 3.56324 20.494C3.70378 20.6537 3.87688 20.7816 4.07093 20.8689C4.26497 20.9562 4.47546 21.001 4.68824 21.0002H9.18824C9.38716 21.0002 9.57792 20.9212 9.71857 20.7805C9.85923 20.6399 9.93824 20.4491 9.93824 20.2502V15.7502C9.93824 15.5513 10.0173 15.3605 10.1579 15.2199C10.2986 15.0792 10.4893 15.0002 10.6882 15.0002H13.6882C13.8872 15.0002 14.0779 15.0792 14.2186 15.2199C14.3592 15.3605 14.4382 15.5513 14.4382 15.7502V20.2502C14.4382 20.4491 14.5173 20.6399 14.6579 20.7805C14.7986 20.9212 14.9893 21.0002 15.1882 21.0002H19.6882C19.9372 21.0025 20.1825 20.941 20.4007 20.8225C20.6385 20.6929 20.837 20.5018 20.9755 20.2691C21.1141 20.0365 21.1875 19.771 21.1882 19.5002V10.828C21.1881 10.62 21.1446 10.4143 21.0607 10.224C20.9768 10.0336 20.8542 9.86286 20.7007 9.72246Z" fill="#9F9F9F"/>
</svg>
