<svg width="25" height="24" viewBox="0 0 25 24" fill="none" xmlns="http://www.w3.org/2000/svg">
<path d="M20.6677 9.72221L13.1677 2.90621C12.8912 2.65324 12.53 2.51294 12.1552 2.51294C11.7804 2.51294 11.4192 2.65324 11.1427 2.90621L3.64272 9.72221C3.48916 9.8627 3.36652 10.0336 3.28259 10.2241C3.19867 10.4145 3.15529 10.6203 3.15522 10.8285V19.4625C3.14922 19.8405 3.28272 20.208 3.53022 20.4937C3.67076 20.6535 3.84386 20.7813 4.03791 20.8686C4.23195 20.956 4.44244 21.0007 4.65522 21H9.15522C9.35414 21 9.5449 20.9209 9.68555 20.7803C9.82621 20.6396 9.90522 20.4489 9.90522 20.25V15.75C9.90522 15.5511 9.98424 15.3603 10.1249 15.2196C10.2655 15.079 10.4563 15 10.6552 15H13.6552C13.8541 15 14.0449 15.079 14.1856 15.2196C14.3262 15.3603 14.4052 15.5511 14.4052 15.75V20.25C14.4052 20.4489 14.4842 20.6396 14.6249 20.7803C14.7655 20.9209 14.9563 21 15.1552 21H19.6552C19.9042 21.0022 20.1495 20.9407 20.3677 20.8222C20.6054 20.6926 20.804 20.5015 20.9425 20.2689C21.081 20.0363 21.1545 19.7707 21.1552 19.5V10.8277C21.1551 10.6197 21.1116 10.414 21.0277 10.2237C20.9438 10.0334 20.8212 9.86261 20.6677 9.72221Z" fill="#0F1016"/>
</svg>
