<svg width="25" height="24" viewBox="0 0 25 24" fill="none" xmlns="http://www.w3.org/2000/svg">
<path d="M11.3886 19.0067C11.8263 19.3678 12.2827 19.6979 12.75 20.02C13.2183 19.7022 13.6725 19.3641 14.1114 19.0067C14.843 18.406 15.5315 17.7546 16.1719 17.0575C17.6481 15.4433 19.25 13.1033 19.25 10.4766C19.25 9.62297 19.0819 8.77774 18.7552 7.98912C18.4286 7.2005 17.9498 6.48395 17.3462 5.88037C16.7426 5.27679 16.0261 4.798 15.2374 4.47135C14.4488 4.14469 13.6036 3.97656 12.75 3.97656C11.8964 3.97656 11.0512 4.14469 10.2626 4.47135C9.47394 4.798 8.75739 5.27679 8.15381 5.88037C7.55022 6.48395 7.07144 7.2005 6.74478 7.98912C6.41813 8.77774 6.25 9.62297 6.25 10.4766C6.25 13.1033 7.85189 15.4426 9.32811 17.0575C9.96845 17.7549 10.657 18.4058 11.3886 19.0067ZM12.75 12.8238C12.1275 12.8238 11.5305 12.5765 11.0903 12.1363C10.6501 11.6961 10.4028 11.0991 10.4028 10.4766C10.4028 9.85404 10.6501 9.25702 11.0903 8.81683C11.5305 8.37664 12.1275 8.12934 12.75 8.12934C13.3725 8.12934 13.9695 8.37664 14.4097 8.81683C14.8499 9.25702 15.0972 9.85404 15.0972 10.4766C15.0972 11.0991 14.8499 11.6961 14.4097 12.1363C13.9695 12.5765 13.3725 12.8238 12.75 12.8238Z" fill="#5D6167"/>
</svg>
