<svg width="32" height="32" viewBox="0 0 32 32" fill="none" xmlns="http://www.w3.org/2000/svg">
<rect width="32" height="32" rx="6" fill="#F2F8FF"/>
<path d="M16 7.83789C18.8512 7.83789 21.1621 10.1488 21.1621 13V14.4492C21.9547 14.517 22.5036 14.6793 22.9121 15.0879C23.2632 15.439 23.4327 15.8939 23.5166 16.5176C23.6001 17.1385 23.5996 17.9422 23.5996 19C23.5996 20.0578 23.6001 20.8615 23.5166 21.4824C23.4327 22.1061 23.2632 22.561 22.9121 22.9121C22.561 23.2632 22.1061 23.4327 21.4824 23.5166C20.8615 23.6001 20.0578 23.5996 19 23.5996H13C11.9422 23.5996 11.1385 23.6001 10.5176 23.5166C9.89392 23.4327 9.43902 23.2632 9.08789 22.9121C8.73676 22.561 8.56728 22.1061 8.4834 21.4824C8.39992 20.8615 8.40039 20.0578 8.40039 19C8.40039 17.9422 8.39992 17.1385 8.4834 16.5176C8.56728 15.8939 8.73676 15.439 9.08789 15.0879C9.49638 14.6794 10.0454 14.517 10.8379 14.4492V13C10.8379 10.1488 13.1488 7.83789 16 7.83789ZM16 9.16211C13.8806 9.16211 12.1621 10.8806 12.1621 13V14.4014C12.4217 14.3995 12.7005 14.4004 13 14.4004H19C19.2995 14.4004 19.5783 14.3995 19.8379 14.4014V13C19.8379 10.8806 18.1194 9.16211 16 9.16211Z" fill="#1B51BB" stroke="#1B51BB" stroke-width="0.2"/>
</svg>
