<svg width="19" height="19" viewBox="0 0 19 19" fill="none" xmlns="http://www.w3.org/2000/svg">
<g clip-path="url(#clip0_248_1668)">
<path d="M12.893 14.2499V16.9642C12.893 17.3241 12.75 17.6693 12.4955 17.9238C12.241 18.1783 11.8958 18.3213 11.5359 18.3213H2.03585C1.67592 18.3213 1.33072 18.1783 1.07621 17.9238C0.821695 17.6693 0.678711 17.3241 0.678711 16.9642V2.03561C0.678711 1.67567 0.821695 1.33048 1.07621 1.07596C1.33072 0.821451 1.67592 0.678467 2.03585 0.678467H11.5359C11.8958 0.678467 12.241 0.821451 12.4955 1.07596C12.75 1.33048 12.893 1.67567 12.893 2.03561V4.7499M8.82157 9.4999H18.3216M18.3216 9.4999L15.6073 6.78561M18.3216 9.4999L15.6073 12.2142" stroke="#373737" stroke-width="1.35714" stroke-linecap="round" stroke-linejoin="round"/>
</g>
<defs>
<clipPath id="clip0_248_1668">
<rect width="19" height="19" fill="white"/>
</clipPath>
</defs>
</svg>
