<svg width="20" height="20" viewBox="0 0 20 20" fill="none" xmlns="http://www.w3.org/2000/svg">
<path fill-rule="evenodd" clip-rule="evenodd" d="M10.0432 1.04102H9.9565C9.20775 1.04099 8.58342 1.04097 8.08777 1.10761C7.56461 1.17795 7.09228 1.33267 6.71272 1.71223C6.33316 2.09179 6.17844 2.56412 6.1081 3.08728C6.06033 3.44259 6.04681 4.29224 6.043 5.02073C4.35779 5.07577 3.34597 5.2725 2.64281 5.97566C1.6665 6.95197 1.6665 8.52335 1.6665 11.666C1.6665 14.8087 1.6665 16.3801 2.64281 17.3563C3.61912 18.3327 5.19047 18.3327 8.33315 18.3327H11.6665C14.8092 18.3327 16.3806 18.3327 17.3568 17.3563C18.3332 16.3801 18.3332 14.8087 18.3332 11.666C18.3332 8.52335 18.3332 6.95197 17.3568 5.97566C16.6537 5.2725 15.6419 5.07577 13.9567 5.02073C13.9528 4.29224 13.9393 3.44259 13.8916 3.08728C13.8213 2.56412 13.6665 2.09179 13.2869 1.71223C12.9074 1.33267 12.4351 1.17795 11.9119 1.10761C11.4163 1.04097 10.7919 1.04099 10.0432 1.04102ZM12.7064 5.00092C12.7027 4.29537 12.6907 3.53607 12.6528 3.25385C12.601 2.86929 12.5117 2.70472 12.4031 2.59612C12.2945 2.48752 12.1299 2.39817 11.7453 2.34647C11.3428 2.29235 10.8032 2.29102 9.99984 2.29102C9.1965 2.29102 8.65684 2.29235 8.25433 2.34647C7.86978 2.39817 7.7052 2.48752 7.5966 2.59612C7.488 2.70472 7.39865 2.86929 7.34695 3.25385C7.309 3.53607 7.29701 4.29537 7.29324 5.00092C7.61942 4.99935 7.96555 4.99935 8.33317 4.99935H11.6665C12.0342 4.99935 12.3803 4.99935 12.7064 5.00092ZM9.99984 7.70768C10.345 7.70768 10.6248 7.98751 10.6248 8.33268V8.34118C11.5322 8.56977 12.2915 9.28518 12.2915 10.2771C12.2915 10.6223 12.0117 10.9021 11.6665 10.9021C11.3213 10.9021 11.0415 10.6223 11.0415 10.2771C11.0415 9.9571 10.6867 9.51327 9.99984 9.51327C9.313 9.51327 8.95817 9.9571 8.95817 10.2771C8.95817 10.5972 9.313 11.041 9.99984 11.041C11.1539 11.041 12.2915 11.8408 12.2915 13.0549C12.2915 14.0469 11.5322 14.7623 10.6248 14.9908V14.9994C10.6248 15.3445 10.345 15.6244 9.99984 15.6244C9.65467 15.6244 9.37484 15.3445 9.37484 14.9994V14.9908C8.4675 14.7623 7.70817 14.0469 7.70817 13.0549C7.70817 12.7098 7.988 12.4299 8.33317 12.4299C8.67834 12.4299 8.95817 12.7098 8.95817 13.0549C8.95817 13.3749 9.313 13.8188 9.99984 13.8188C10.6867 13.8188 11.0415 13.3749 11.0415 13.0549C11.0415 12.7348 10.6867 12.291 9.99984 12.291C8.84575 12.291 7.70817 11.4913 7.70817 10.2771C7.70817 9.28518 8.4675 8.56977 9.37484 8.34118V8.33268C9.37484 7.98751 9.65467 7.70768 9.99984 7.70768Z" fill="#1B51BB"/>
</svg>
