<svg width="24" height="25" viewBox="0 0 24 25" fill="none" xmlns="http://www.w3.org/2000/svg">
<path fill-rule="evenodd" clip-rule="evenodd" d="M12.0599 0.458986H11.9385C10.8903 0.458951 10.0162 0.458927 9.32229 0.552214C8.58987 0.650692 7.9286 0.867307 7.39722 1.39869C6.86584 1.93007 6.64923 2.59134 6.55075 3.32376C6.48387 3.82119 6.46495 5.0107 6.45961 6.03059C4.10032 6.10765 2.68377 6.38306 1.69935 7.36748C0.33252 8.73433 0.33252 10.9343 0.33252 15.334C0.33252 19.7337 0.33252 21.9337 1.69935 23.3005C3.06618 24.6673 5.26607 24.6673 9.66583 24.6673H14.3325C18.7323 24.6673 20.9322 24.6673 22.299 23.3005C23.6659 21.9337 23.6659 19.7337 23.6659 15.334C23.6659 10.9343 23.6659 8.73433 22.299 7.36748C21.3146 6.38306 19.8981 6.10765 17.5388 6.03059C17.5334 5.0107 17.5145 3.82119 17.4476 3.32376C17.3492 2.59134 17.1325 1.93007 16.6011 1.39869C16.0698 0.867307 15.4085 0.650692 14.6761 0.552214C13.9822 0.458927 13.1081 0.458951 12.0599 0.458986ZM15.7884 6.00285C15.7832 5.01509 15.7664 3.95207 15.7133 3.55695C15.6408 3.01857 15.5158 2.78817 15.3637 2.63613C15.2117 2.48409 14.9813 2.359 14.4429 2.28662C13.8794 2.21085 13.1239 2.20899 11.9992 2.20899C10.8745 2.20899 10.119 2.21085 9.55547 2.28662C9.0171 2.359 8.7867 2.48409 8.63466 2.63613C8.48262 2.78817 8.35753 3.01857 8.28515 3.55695C8.23202 3.95207 8.21523 5.01509 8.20995 6.00285C8.6666 6.00065 9.15118 6.00065 9.66585 6.00065H14.3325C14.8473 6.00065 15.3318 6.00065 15.7884 6.00285ZM11.9992 9.79232C12.4824 9.79232 12.8742 10.1841 12.8742 10.6673V10.6792C14.1445 10.9992 15.2075 12.0008 15.2075 13.3895C15.2075 13.8727 14.8158 14.2645 14.3325 14.2645C13.8493 14.2645 13.4575 13.8727 13.4575 13.3895C13.4575 12.9415 12.9608 12.3201 11.9992 12.3201C11.0376 12.3201 10.5409 12.9415 10.5409 13.3895C10.5409 13.8376 11.0376 14.459 11.9992 14.459C13.6149 14.459 15.2075 15.5788 15.2075 17.2785C15.2075 18.6672 14.1445 19.6687 12.8742 19.9888V20.0007C12.8742 20.4839 12.4824 20.8757 11.9992 20.8757C11.516 20.8757 11.1242 20.4839 11.1242 20.0007V19.9888C9.85392 19.6687 8.79085 18.6672 8.79085 17.2785C8.79085 16.7952 9.18261 16.4035 9.66585 16.4035C10.1491 16.4035 10.5409 16.7952 10.5409 17.2785C10.5409 17.7265 11.0376 18.3478 11.9992 18.3478C12.9608 18.3478 13.4575 17.7265 13.4575 17.2785C13.4575 16.8304 12.9608 16.209 11.9992 16.209C10.3835 16.209 8.79085 15.0893 8.79085 13.3895C8.79085 12.0008 9.85392 10.9992 11.1242 10.6792V10.6673C11.1242 10.1841 11.516 9.79232 11.9992 9.79232Z" fill="#1B51BB"/>
</svg>
