<svg width="20" height="19" viewBox="0 0 20 19" fill="none" xmlns="http://www.w3.org/2000/svg">
<path d="M8.74967 11.0834C8.74967 11.7392 9.30934 12.2709 9.99967 12.2709V11.626C9.99967 10.9782 10.5031 10.54 11.0268 10.4065C10.8011 10.0979 10.4253 9.89587 9.99967 9.89587C9.30934 9.89587 8.74967 10.4276 8.74967 11.0834ZM6.04134 15.4375H10.2541C10.3973 15.8566 10.5999 16.2539 10.8602 16.625H6.04134C4.54557 16.625 3.33301 15.4731 3.33301 14.0521V8.11462C3.33301 6.69364 4.54557 5.54171 6.04134 5.54171H6.66634V4.75004C6.66634 3.00114 8.15872 1.58337 9.99967 1.58337C11.8406 1.58337 13.333 3.00114 13.333 4.75004V5.54171H13.958C15.4538 5.54171 16.6663 6.69364 16.6663 8.11462V9.911C16.1975 9.64492 15.8171 9.32421 15.5747 9.09407C15.5248 9.04673 15.4718 9.00375 15.4163 8.96511V8.11462C15.4163 7.34948 14.7634 6.72921 13.958 6.72921H6.04134C5.23592 6.72921 4.58301 7.34948 4.58301 8.11462V14.0521C4.58301 14.8173 5.23592 15.4375 6.04134 15.4375ZM9.99967 2.77087C8.84909 2.77087 7.91634 3.65698 7.91634 4.75004V5.54171H12.083V4.75004C12.083 3.65698 11.1503 2.77087 9.99967 2.77087ZM14.991 9.65402C15.5349 10.1693 16.5801 10.9888 17.8655 11.1568C18.1218 11.1904 18.333 11.3825 18.333 11.6231V13.8703C18.333 16.8913 15.3502 17.9877 14.7053 18.1895C14.6245 18.2147 14.5421 18.2147 14.4613 18.1895C13.8164 17.9877 10.8333 16.8913 10.8333 13.8703L10.833 11.6231C10.833 11.3826 11.0442 11.1904 11.3005 11.1568C12.5857 10.9887 13.6309 10.1693 14.1749 9.65402C14.3917 9.44866 14.7743 9.44874 14.991 9.65402Z" fill="#373737"/>
</svg>
