<svg width="25" height="24" viewBox="0 0 25 24" fill="none" xmlns="http://www.w3.org/2000/svg">
<path d="M12.7826 2.27783C9.95558 2.27783 7.65561 4.5778 7.65561 7.40483C7.65561 10.2319 9.95558 12.5318 12.7826 12.5318C15.6096 12.5318 17.9096 10.2319 17.9096 7.40483C17.9096 4.5778 15.6096 2.27783 12.7826 2.27783ZM19.1616 15.8813C17.7579 14.4561 15.8971 13.6712 13.9219 13.6712H11.6433C9.66813 13.6712 7.80729 14.4561 6.40363 15.8813C5.00685 17.2995 4.23761 19.1716 4.23761 21.1528C4.23761 21.4674 4.49267 21.7225 4.80728 21.7225H20.7579C21.0726 21.7225 21.3276 21.4674 21.3276 21.1528C21.3276 19.1716 20.5584 17.2995 19.1616 15.8813Z" fill="#0F1016"/>
</svg>
