<svg width="25" height="24" viewBox="0 0 25 24" fill="none" xmlns="http://www.w3.org/2000/svg">
<path d="M12.7496 2.27771C9.92256 2.27771 7.62259 4.57768 7.62259 7.40471C7.62259 10.2317 9.92256 12.5317 12.7496 12.5317C15.5766 12.5317 17.8766 10.2317 17.8766 7.40471C17.8766 4.57768 15.5766 2.27771 12.7496 2.27771ZM19.1286 15.8812C17.7249 14.4559 15.8641 13.671 13.8889 13.671H11.6103C9.63511 13.671 7.77427 14.4559 6.37061 15.8812C4.97383 17.2994 4.20459 19.1715 4.20459 21.1527C4.20459 21.4673 4.45965 21.7223 4.77426 21.7223H20.7249C21.0395 21.7223 21.2946 21.4673 21.2946 21.1527C21.2946 19.1715 20.5254 17.2994 19.1286 15.8812Z" fill="#9F9F9F"/>
</svg>
