<svg width="56" height="56" viewBox="0 0 56 56" fill="none" xmlns="http://www.w3.org/2000/svg">
<rect width="56" height="56" rx="8.4" fill="#F2F8FF"/>
<path fill-rule="evenodd" clip-rule="evenodd" d="M17.5621 16.2281C16 17.7902 16 20.3044 16 25.3327V30.666C16 35.6943 16 38.2085 17.5621 39.7705C19.1242 41.3327 21.6383 41.3327 26.6667 41.3327H29.3333C34.3616 41.3327 36.8759 41.3327 38.4379 39.7705C40 38.2085 40 35.6943 40 30.666V25.3327C40 20.3044 40 17.7902 38.4379 16.2281C36.8759 14.666 34.3616 14.666 29.3333 14.666H26.6667C21.6383 14.666 19.1242 14.666 17.5621 16.2281ZM21.6667 22.666C21.6667 22.1137 22.1144 21.666 22.6667 21.666H33.3333C33.8856 21.666 34.3333 22.1137 34.3333 22.666C34.3333 23.2183 33.8856 23.666 33.3333 23.666H22.6667C22.1144 23.666 21.6667 23.2183 21.6667 22.666ZM21.6667 27.9993C21.6667 27.4471 22.1144 26.9993 22.6667 26.9993H33.3333C33.8856 26.9993 34.3333 27.4471 34.3333 27.9993C34.3333 28.5516 33.8856 28.9993 33.3333 28.9993H22.6667C22.1144 28.9993 21.6667 28.5516 21.6667 27.9993ZM22.6667 32.3327C22.1144 32.3327 21.6667 32.7804 21.6667 33.3327C21.6667 33.8849 22.1144 34.3327 22.6667 34.3327H29.3333C29.8856 34.3327 30.3333 33.8849 30.3333 33.3327C30.3333 32.7804 29.8856 32.3327 29.3333 32.3327H22.6667Z" fill="#1B51BB"/>
</svg>
