<svg width="24" height="24" viewBox="0 0 24 24" fill="none" xmlns="http://www.w3.org/2000/svg">
<path d="M15.9971 4.5L16.7617 4.50977C17.4751 4.52547 18.0382 4.56202 18.498 4.64648C19.0965 4.75644 19.4772 4.94019 19.7676 5.23047C20.0985 5.56142 20.2921 6.01194 20.3945 6.77344C20.4988 7.54924 20.5 8.57002 20.5 9.99805V15.998C20.5 17.4264 20.4988 18.4478 20.3945 19.2236C20.2922 19.9849 20.0984 20.4347 19.7676 20.7656C19.4367 21.0965 18.9868 21.2902 18.2256 21.3926C17.4497 21.4969 16.4283 21.498 15 21.498H9C7.57165 21.498 6.55029 21.4969 5.77441 21.3926C5.01318 21.2902 4.56332 21.0965 4.23242 20.7656C3.90156 20.4347 3.70784 19.9849 3.60547 19.2236C3.50115 18.4478 3.5 17.4264 3.5 15.998V9.99805C3.5 8.57002 3.50121 7.54924 3.60547 6.77344C3.70785 6.01194 3.90147 5.56142 4.23242 5.23047C4.52274 4.9402 4.90346 4.75644 5.50195 4.64648C5.96157 4.56206 6.52441 4.52548 7.2373 4.50977L8.00293 4.5H15.9971Z" stroke="#8493B2"/>
<path d="M8 3.5C8 2.67157 8.67157 2 9.5 2H14.5C15.3284 2 16 2.67157 16 3.5V4.5C16 5.32843 15.3284 6 14.5 6H9.5C8.67157 6 8 5.32843 8 4.5V3.5Z" fill="#8493B2"/>
<path fill-rule="evenodd" clip-rule="evenodd" d="M6.25 10.5C6.25 10.0858 6.58579 9.75 7 9.75H7.5C7.91421 9.75 8.25 10.0858 8.25 10.5C8.25 10.9142 7.91421 11.25 7.5 11.25H7C6.58579 11.25 6.25 10.9142 6.25 10.5ZM9.75 10.5C9.75 10.0858 10.0858 9.75 10.5 9.75H17C17.4142 9.75 17.75 10.0858 17.75 10.5C17.75 10.9142 17.4142 11.25 17 11.25H10.5C10.0858 11.25 9.75 10.9142 9.75 10.5ZM6.25 14C6.25 13.5858 6.58579 13.25 7 13.25H7.5C7.91421 13.25 8.25 13.5858 8.25 14C8.25 14.4142 7.91421 14.75 7.5 14.75H7C6.58579 14.75 6.25 14.4142 6.25 14ZM9.75 14C9.75 13.5858 10.0858 13.25 10.5 13.25H17C17.4142 13.25 17.75 13.5858 17.75 14C17.75 14.4142 17.4142 14.75 17 14.75H10.5C10.0858 14.75 9.75 14.4142 9.75 14ZM6.25 17.5C6.25 17.0858 6.58579 16.75 7 16.75H7.5C7.91421 16.75 8.25 17.0858 8.25 17.5C8.25 17.9142 7.91421 18.25 7.5 18.25H7C6.58579 18.25 6.25 17.9142 6.25 17.5ZM9.75 17.5C9.75 17.0858 10.0858 16.75 10.5 16.75H17C17.4142 16.75 17.75 17.0858 17.75 17.5C17.75 17.9142 17.4142 18.25 17 18.25H10.5C10.0858 18.25 9.75 17.9142 9.75 17.5Z" fill="#8493B2"/>
</svg>
