<svg width="22" height="22" viewBox="0 0 22 22" fill="none" xmlns="http://www.w3.org/2000/svg">
<path d="M11.0002 20.1663C16.0627 20.1663 20.1668 16.0622 20.1668 10.9997C20.1668 5.93706 16.0627 1.83301 11.0002 1.83301C5.93755 1.83301 1.8335 5.93706 1.8335 10.9997C1.8335 16.0622 5.93755 20.1663 11.0002 20.1663Z" fill="#1B51BB"/>
<path d="M9.69788 14.2821C9.51454 14.2821 9.34038 14.2088 9.21205 14.0805L6.61783 11.4863C6.352 11.2205 6.352 10.7805 6.61783 10.5146C6.88367 10.2488 7.32367 10.2488 7.5895 10.5146L9.69788 12.623L14.4095 7.91129C14.6754 7.64546 15.1154 7.64546 15.3812 7.91129C15.647 8.17712 15.647 8.61712 15.3812 8.88296L10.1837 14.0805C10.0554 14.2088 9.88121 14.2821 9.69788 14.2821Z" fill="white"/>
</svg>
