<svg width="36" height="36" viewBox="0 0 36 36" fill="none" xmlns="http://www.w3.org/2000/svg">
<path d="M7.75215 8.62773C6.59902 9.78086 5.81504 11.2012 5.45996 12.7516H6.04004C6.70098 10.1043 8.68027 7.97383 11.2432 7.10195V6.50781C9.93887 6.91563 8.74707 7.63281 7.75215 8.62773Z" fill="#101010"/>
<path d="M33.7469 19.0123C33.7469 23.0061 30.509 26.2475 26.5152 26.251H20.7742V24.7041H26.5152C28.034 24.7041 29.4613 24.11 30.5336 23.0377C31.6094 21.9619 32.2 20.5346 32.2 19.0123C32.2 17.4936 31.6094 16.0627 30.5336 14.9904C29.4578 13.9182 28.027 13.324 26.5082 13.324C26.1039 13.324 25.7066 13.3662 25.3199 13.4471C24.7926 13.5596 24.2863 13.7424 23.8152 13.999C23.7801 13.4576 23.6992 12.9197 23.5762 12.3959V12.3924C23.4496 11.8439 23.2738 11.3096 23.0523 10.7857C22.5461 9.59395 21.8254 8.52168 20.9043 7.60059C19.9832 6.67949 18.9145 5.95879 17.7191 5.45254C16.4852 4.93223 15.1738 4.66504 13.8203 4.66504C12.4668 4.66504 11.1555 4.92871 9.92148 5.45254C8.72969 5.95527 7.65742 6.67949 6.73633 7.60059C5.81523 8.52168 5.09453 9.59395 4.58828 10.7857C4.06445 12.0197 3.80078 13.3311 3.80078 14.6846C3.80078 16.0381 4.06445 17.3494 4.58828 18.5834C5.09102 19.7752 5.81523 20.8475 6.73633 21.7686C7.65742 22.6896 8.72969 23.4104 9.92148 23.9166C11.1555 24.4369 12.4668 24.7041 13.8203 24.7041H15.216V26.251H13.7746C7.40781 26.2264 2.25391 21.0584 2.25391 14.6846C2.25391 8.29668 7.43242 3.11816 13.8203 3.11816C19.2555 3.11816 23.8152 6.86582 25.0527 11.9178V11.9213C25.5238 11.8264 26.009 11.7736 26.5082 11.7736C30.5055 11.7771 33.7469 15.015 33.7469 19.0123Z" fill="#39393A"/>
<path d="M24.36 22.3633H23.5654L18.2744 17.0723V32.8785H17.7119V17.0793L12.4244 22.3633H11.6299L17.9932 16L24.36 22.3633Z" fill="#101010"/>
</svg>
