<svg width="20" height="20" viewBox="0 0 20 20" fill="none" xmlns="http://www.w3.org/2000/svg">
<path d="M18.5417 14.6255L12.1917 3.09218C11.9762 2.69939 11.659 2.37176 11.2735 2.14354C10.8879 1.91533 10.4481 1.79492 10 1.79492C9.55201 1.79492 9.1122 1.91533 8.72664 2.14354C8.34108 2.37176 8.02393 2.69939 7.80838 3.09218L1.45838 14.6255C1.24811 15.0064 1.14086 15.4355 1.14724 15.8705C1.15362 16.3055 1.2734 16.7313 1.49475 17.1058C1.7161 17.4804 2.03135 17.7906 2.40935 18.006C2.78735 18.2214 3.215 18.3344 3.65005 18.3338H16.35C16.7851 18.3344 17.2128 18.2214 17.5907 18.006C17.9687 17.7906 18.284 17.4804 18.5053 17.1058C18.7267 16.7313 18.8465 16.3055 18.8529 15.8705C18.8592 15.4355 18.752 15.0064 18.5417 14.6255ZM10 15.0005C9.83523 15.0005 9.67412 14.9516 9.53707 14.8601C9.40003 14.7685 9.29322 14.6384 9.23015 14.4861C9.16708 14.3338 9.15057 14.1663 9.18273 14.0046C9.21488 13.8429 9.29425 13.6945 9.41079 13.5779C9.52734 13.4614 9.67582 13.382 9.83747 13.3499C9.99913 13.3177 10.1667 13.3342 10.319 13.3973C10.4712 13.4603 10.6014 13.5672 10.6929 13.7042C10.7845 13.8412 10.8334 14.0024 10.8334 14.1672C10.8334 14.3882 10.7456 14.6002 10.5893 14.7564C10.433 14.9127 10.2211 15.0005 10 15.0005ZM10.8334 10.8338C10.8334 11.0549 10.7456 11.2668 10.5893 11.4231C10.433 11.5794 10.2211 11.6672 10 11.6672C9.77904 11.6672 9.56707 11.5794 9.41079 11.4231C9.25451 11.2668 9.16672 11.0549 9.16672 10.8338V7.50051C9.16672 7.2795 9.25451 7.06753 9.41079 6.91125C9.56707 6.75497 9.77904 6.66718 10 6.66718C10.2211 6.66718 10.433 6.75497 10.5893 6.91125C10.7456 7.06753 10.8334 7.2795 10.8334 7.50051V10.8338Z" fill="#FF4141"/>
</svg>
